<svg xmlns="http://www.w3.org/2000/svg" width="140" height="28" viewBox="0 0 140 28">
    <defs>
        <linearGradient id="prefix__a" x1="0%" x2="100%" y1="51.963%" y2="48.037%">
            <stop offset="0%" stop-color="#09B3BF"/>
            <stop offset="100%" stop-color="#5FE3C2"/>
        </linearGradient>
    </defs>
    <path fill="url(#prefix__a)" d="M52.95.457l7.653 13.296-8.15 13.983-7.688.005 8.533-13.983-8-13.301h7.653zm-9.672 0v5.977h-6.733v21.302l-6.726.005V6.435h-6.73V.456h20.189zM11.309 0c3.92 0 6.882.92 9.23 3.257l-4.236 4.219c-1.73-1.722-4-1.607-5.193-1.607-2.345 0-3.306 1.341-3.306 2.53.004.477.198.932.538 1.266.517.475 1.183.76 1.885.804l3.308.462c1.993.153 3.882.945 5.384 2.259 1.461 1.417 2.039 3.448 2.039 5.978 0 5.543-4.81 8.57-10.574 8.57C6.192 27.735 2.767 26.97 0 24.135l4.302-4.294c1.422 1.417 3.924 1.915 6.113 1.915 2.647 0 3.922-.879 3.922-2.452.035-.583-.154-1.158-.529-1.607-.505-.435-1.14-.691-1.807-.729l-3.31-.46c-2.05-.177-3.981-1.026-5.495-2.413-1.336-1.505-2.015-3.479-1.886-5.484C1.311 3.635 5.08 0 11.31 0zm99.592 5.845l4.875 8.635 4.872-8.635h2.715l-6.33 10.656 6.785 11.216-2.715.006-5.325-9.187-5.367 9.188h-2.648l6.719-11.222-6.294-10.657h2.713zM140 5.844v2.089h-6.359v19.79l-2.34.002V7.933h-6.353V5.844H140zm-64.69 0l11.662 17.485V5.844h2.348v21.879h-2.23L75.435 10.171v17.546h-2.345V5.844h2.221zm30.898 0v2.09H94.911v7.715h9.623v2.083H94.92v7.9h11.298v2.09H92.58l.001-21.878h13.627zM62.326 16.767l6.383 10.948-7.365-.005-2.591-4.84 3.573-6.103zM68.406.445l-5.961 10.259-3.708-6.366L60.759.445h7.646z"/>
</svg>
